<mxfile host="app.diagrams.net" agent="Mozilla/5.0 (Windows NT 10.0; Win64; x64) AppleWebKit/537.36 (KHTML, like Gecko) Chrome/140.0.0.0 Safari/537.36" version="28.2.5">
  <diagram name="Page-1" id="1YpvrtoWXmNAr3eCMFMt">
    <mxGraphModel dx="850" dy="537" grid="1" gridSize="10" guides="1" tooltips="1" connect="1" arrows="1" fold="1" page="1" pageScale="1" pageWidth="850" pageHeight="1100" math="0" shadow="0">
      <root>
        <mxCell id="0" />
        <mxCell id="1" parent="0" />
        <mxCell id="bR3CjSxH3y0yfYeL3MuO-3" style="edgeStyle=orthogonalEdgeStyle;rounded=0;orthogonalLoop=1;jettySize=auto;html=1;entryX=0;entryY=0.5;entryDx=0;entryDy=0;" edge="1" parent="1" source="bR3CjSxH3y0yfYeL3MuO-1" target="bR3CjSxH3y0yfYeL3MuO-2">
          <mxGeometry relative="1" as="geometry" />
        </mxCell>
        <mxCell id="bR3CjSxH3y0yfYeL3MuO-1" value="&lt;b&gt;1857&lt;/b&gt;" style="rounded=1;whiteSpace=wrap;html=1;fillColor=#dae8fc;strokeColor=#6c8ebf;gradientColor=#7ea6e0;" vertex="1" parent="1">
          <mxGeometry x="80" y="120" width="120" height="80" as="geometry" />
        </mxCell>
        <mxCell id="bR3CjSxH3y0yfYeL3MuO-2" value="&lt;b&gt;1858&lt;/b&gt;" style="rounded=1;whiteSpace=wrap;html=1;fillColor=#d5e8d4;strokeColor=#82b366;gradientColor=#97d077;" vertex="1" parent="1">
          <mxGeometry x="410" y="120" width="120" height="80" as="geometry" />
        </mxCell>
        <mxCell id="bR3CjSxH3y0yfYeL3MuO-4" value="&lt;b&gt;1. Script 2 cant access script-1 environment&lt;/b&gt;&lt;div&gt;&lt;b&gt;2. Both process are different, no relation&lt;/b&gt;&lt;/div&gt;" style="text;html=1;align=left;verticalAlign=middle;resizable=0;points=[];autosize=1;strokeColor=none;fillColor=none;" vertex="1" parent="1">
          <mxGeometry x="200" y="200" width="270" height="40" as="geometry" />
        </mxCell>
        <mxCell id="bR3CjSxH3y0yfYeL3MuO-5" value="" style="rounded=1;whiteSpace=wrap;html=1;fillColor=#dae8fc;strokeColor=#6c8ebf;gradientColor=#7ea6e0;" vertex="1" parent="1">
          <mxGeometry x="140" y="350" width="200" height="180" as="geometry" />
        </mxCell>
        <mxCell id="bR3CjSxH3y0yfYeL3MuO-6" value="" style="rounded=1;whiteSpace=wrap;html=1;fillColor=#d5e8d4;strokeColor=#82b366;gradientColor=#97d077;" vertex="1" parent="1">
          <mxGeometry x="230" y="460" width="100" height="60" as="geometry" />
        </mxCell>
        <mxCell id="bR3CjSxH3y0yfYeL3MuO-7" value="&lt;b&gt;1857&lt;/b&gt;" style="text;html=1;align=center;verticalAlign=middle;resizable=0;points=[];autosize=1;strokeColor=none;fillColor=none;" vertex="1" parent="1">
          <mxGeometry x="210" y="360" width="50" height="30" as="geometry" />
        </mxCell>
        <mxCell id="bR3CjSxH3y0yfYeL3MuO-8" value="&lt;b&gt;SCRITP-1&lt;/b&gt;" style="text;html=1;align=center;verticalAlign=middle;resizable=0;points=[];autosize=1;strokeColor=none;fillColor=none;" vertex="1" parent="1">
          <mxGeometry x="180" y="390" width="80" height="30" as="geometry" />
        </mxCell>
        <mxCell id="bR3CjSxH3y0yfYeL3MuO-9" value="&lt;b&gt;SCRITP-2&lt;/b&gt;" style="text;html=1;align=center;verticalAlign=middle;resizable=0;points=[];autosize=1;strokeColor=none;fillColor=none;" vertex="1" parent="1">
          <mxGeometry x="240" y="475" width="80" height="30" as="geometry" />
        </mxCell>
      </root>
    </mxGraphModel>
  </diagram>
</mxfile>
